Coordinates
version=1
nRows=16
nColumns=40
inDegrees=yes

Units are S.I. units (second, meters, Newtons, ...)
If the header above contains a line with 'inDegrees', this indicates whether rotational values are in degrees (yes) or radians (no).

endheader
time	pelvis_tilt	pelvis_list	pelvis_rotation	pelvis_tx	pelvis_ty	pelvis_tz	hip_flexion_r	hip_adduction_r	hip_rotation_r	knee_angle_r	knee_angle_r_beta	ankle_angle_r	subtalar_angle_r	mtp_angle_r	hip_flexion_l	hip_adduction_l	hip_rotation_l	knee_angle_l	knee_angle_l_beta	ankle_angle_l	subtalar_angle_l	mtp_angle_l	lumbar_extension	lumbar_bending	lumbar_rotation	arm_flex_r	arm_add_r	arm_rot_r	elbow_flex_r	pro_sup_r	wrist_flex_r	wrist_dev_r	arm_flex_l	arm_add_l	arm_rot_l	elbow_flex_l	pro_sup_l	wrist_flex_l	wrist_dev_l
      2.52500000	      7.64808154	     -7.50397474	      1.25380294	     -0.35720904	      0.89130854	     -1.05131262	     35.56321637	      4.12481399	     -0.39721571	      1.42707397	      0.02490714	     -7.96916241	      0.00000000	      0.00000000	     33.96519662	     -5.79228380	      0.13632047	     75.25397445	      1.31342963	     23.99096940	      0.00000000	      0.00000000	    -27.62464599	      2.95767782	      6.55045920	     89.85054779	     -0.82330200	     22.14970304	     34.30099242	     85.29998988	      0.00000000	      0.00000000	     89.94076512	     -3.98479208	     33.00338334	     40.86356007	     85.96664592	      0.00000000	      0.00000000
      2.53000000	      7.54525495	     -7.51289629	      1.21866002	     -0.35758684	      0.88980868	     -1.05117015	     35.75382055	      4.14559401	     -0.57744140	      1.40864405	      0.02458548	     -7.90300099	      0.00000000	      0.00000000	     34.25385911	     -5.77663643	      0.19128118	     75.54143138	      1.31844670	     24.14445024	      0.00000000	      0.00000000	    -27.62803984	      2.94315938	      6.56230610	     89.85518910	     -0.79515857	     21.96737063	     34.46401896	     85.23591579	      0.00000000	      0.00000000	     89.94149178	     -4.01984263	     32.78332336	     40.96968922	     85.99500953	      0.00000000	      0.00000000
      2.53500000	      7.50215857	     -7.52108396	      1.20669139	     -0.35790811	      0.88845422	     -1.05110010	     35.88837043	      4.15991015	     -0.86612783	      1.40043750	      0.02444225	     -7.83710484	      0.00000000	      0.00000000	     34.46498395	     -5.73843811	      0.26669928	     75.82531538	      1.32340141	     24.23004747	      0.00000000	      0.00000000	    -27.69541625	      2.94308386	      6.58318547	     89.85932547	     -0.80467882	     21.81276696	     34.65510494	     85.09950983	      0.00000000	      0.00000000	     89.94214016	     -4.03774840	     32.52760218	     41.08823139	     86.03531132	      0.00000000	      0.00000000
      2.54000000	      7.31145141	     -7.37737209	      1.10979852	     -0.35840799	      0.88683781	     -1.05107221	     36.16026846	      4.05827167	     -0.76582253	      1.34199658	      0.02342226	     -7.84283741	      0.00000000	      0.00000000	     34.83335633	     -5.56613429	      0.19846637	     76.09531258	      1.32811375	     24.36111357	      0.00000000	      0.00000000	    -27.62219515	      2.73124640	      6.70276302	     89.86336555	     -1.03441401	     21.78451152	     34.93705309	     85.00221803	      0.00000000	      0.00000000	     89.94260030	     -3.69026408	     31.85487727	     40.93409816	     85.80671477	      0.00000000	      0.00000000
      2.54500000	      7.32469129	     -7.46501239	      1.21542130	     -0.35855887	      0.88564087	     -1.05115603	     36.20853837	      4.06777896	     -1.17935929	      1.32180837	      0.02306991	     -7.68627849	      0.00000000	      0.00000000	     34.98599049	     -5.56165528	      0.38419567	     76.34981493	      1.33255565	     24.52486123	      0.00000000	      0.00000000	    -27.73338101	      2.87660294	      6.56278651	     89.86735432	     -0.85178255	     21.28995243	     35.02675682	     85.30984110	      0.00000000	      0.00000000	     89.94365148	     -3.97682931	     31.97200417	     41.27868760	     85.86303267	      0.00000000	      0.00000000
      2.55000000	      7.17204175	     -7.40460458	      1.13402490	     -0.35879648	      0.88401840	     -1.05091794	     36.46852490	      4.05680668	     -1.37525427	      1.34305857	      0.02344079	     -7.63366332	      0.00000000	      0.00000000	     35.29545191	     -5.51415902	      0.34543031	     76.62213609	      1.33730855	     24.66325662	      0.00000000	      0.00000000	    -27.66791507	      2.76608851	      6.58377334	     89.87076960	     -0.80533889	     21.09295540	     35.10154609	     85.19904182	      0.00000000	      0.00000000	     89.94420166	     -3.99845940	     31.77567843	     41.35902083	     85.88380485	      0.00000000	      0.00000000
      2.55500000	      7.12810775	     -7.42831135	      1.07206484	     -0.35915239	      0.88270670	     -1.05077761	     36.58630929	      4.10956841	     -1.47602382	      1.32438621	      0.02311490	     -7.57295968	      0.00000000	      0.00000000	     35.50339045	     -5.53488954	      0.36532265	     76.89186030	      1.34201613	     24.75361594	      0.00000000	      0.00000000	    -27.73267405	      2.74741250	      6.66982991	     89.87406917	     -0.85385860	     20.92219544	     35.31925959	     85.17380530	      0.00000000	      0.00000000	     89.94487215	     -3.97018252	     31.53335089	     41.48798925	     85.86719076	      0.00000000	      0.00000000
      2.56000000	      6.92218455	     -7.29349483	      1.00630785	     -0.35953425	      0.88096494	     -1.05067386	     36.90253481	      3.99689332	     -1.60622680	      1.33248983	      0.02325633	     -7.57210355	      0.00000000	      0.00000000	     35.90136384	     -5.36491208	      0.36446836	     77.18084646	      1.34705989	     24.89823630	      0.00000000	      0.00000000	    -27.61843560	      2.58722177	      6.63054610	     89.87818608	     -0.76811711	     20.58439904	     35.38486249	     85.15703269	      0.00000000	      0.00000000	     89.94530016	     -4.01401053	     31.34602894	     41.62681461	     85.79257074	      0.00000000	      0.00000000
      2.56500000	      6.87951383	     -7.31119450	      1.01064474	     -0.35970542	      0.87959475	     -1.05070184	     37.05044866	      3.99231707	     -1.91639879	      1.36147778	      0.02376227	     -7.57262243	      0.00000000	      0.00000000	     36.09953047	     -5.32840637	      0.45125169	     77.45331426	      1.35181535	     24.99009395	      0.00000000	      0.00000000	    -27.67656469	      2.60729824	      6.62991544	     89.88070879	     -0.77489712	     20.46355762	     35.62541341	     85.07928505	      0.00000000	      0.00000000	     89.94599597	     -4.01726482	     31.10365603	     41.68728431	     85.83410633	      0.00000000	      0.00000000
      2.57000000	      6.81495649	     -7.27054820	      0.94591429	     -0.35972243	      0.87809300	     -1.05047036	     37.18200552	      3.99571844	     -1.94377925	      1.32891151	      0.02319388	     -7.48402476	      0.00000000	      0.00000000	     36.30742869	     -5.30044379	      0.43982791	     77.72156628	      1.35649723	     25.18745042	      0.00000000	      0.00000000	    -27.69327470	      2.51545132	      6.67444393	     89.88317502	     -0.82033966	     20.31827978	     35.79117496	     85.16461786	      0.00000000	      0.00000000	     89.94660564	     -3.98883473	     30.94269829	     41.76746515	     85.71851577	      0.00000000	      0.00000000
      2.57500000	      6.71391507	     -7.29567854	      0.95934450	     -0.36012935	      0.87657670	     -1.05057317	     37.35829232	      3.99906799	     -2.10040443	      1.32889119	      0.02319353	     -7.25728451	      0.00000000	      0.00000000	     36.61792280	     -5.25785374	      0.52676511	     78.04028872	      1.36205999	     25.20347769	      0.00000000	      0.00000000	    -27.67495251	      2.54869243	      6.74690208	     89.88656175	     -0.90498081	     20.09805332	     35.95186290	     85.14483395	      0.00000000	      0.00000000	     89.94694664	     -3.92704019	     30.68992452	     41.90202249	     85.65283622	      0.00000000	      0.00000000
      2.58000000	      6.61562553	     -7.27830220	      0.97881944	     -0.36027662	      0.87512688	     -1.05066299	     37.55014448	      3.95266237	     -2.32220335	      1.33229582	      0.02325295	     -7.21635614	      0.00000000	      0.00000000	     36.87604696	     -5.16489844	      0.61947320	     78.28601478	      1.36634872	     25.36746227	      0.00000000	      0.00000000	    -27.67465904	      2.54800334	      6.71880385	     89.88872481	     -0.97797515	     20.10210114	     36.18114314	     84.96753341	      0.00000000	      0.00000000	     89.94759046	     -3.89042955	     30.46955122	     41.94264971	     85.72187757	      0.00000000	      0.00000000
      2.58500000	      6.55393317	     -7.31430764	      0.93048392	     -0.36051486	      0.87369171	     -1.05060244	     37.69392513	      4.00358651	     -2.47853711	      1.33277617	      0.02326133	     -7.15623675	      0.00000000	      0.00000000	     37.09869760	     -5.16776174	      0.69395583	     78.56477956	      1.37121408	     25.48557481	      0.00000000	      0.00000000	    -27.70157667	      2.54793442	      6.83651327	     89.89167876	     -1.03195938	     19.80669787	     36.34684891	     84.99919301	      0.00000000	      0.00000000	     89.94814707	     -3.82015746	     30.25159108	     42.01418261	     85.48094558	      0.00000000	      0.00000000
      2.59000000	      6.39701410	     -7.33178370	      0.90872292	     -0.36074909	      0.87200339	     -1.05055962	     37.95056458	      4.01192163	     -2.62085502	      1.34810586	      0.02352889	     -7.12550876	      0.00000000	      0.00000000	     37.45786468	     -5.13989614	      0.74253830	     78.89289625	      1.37694080	     25.60494600	      0.00000000	      0.00000000	    -27.63278283	      2.54979953	      6.85164928	     89.89549338	     -1.06691844	     19.72029242	     36.52652371	     85.05628329	      0.00000000	      0.00000000	     89.94857567	     -3.82666223	     30.09226453	     42.18584824	     85.56298264	      0.00000000	      0.00000000
      2.59500000	      6.38548673	     -7.26267051	      0.89147797	     -0.36085825	      0.87065957	     -1.05062391	     38.02804486	      3.94842939	     -2.57131469	      1.33224086	      0.02325199	     -7.06139996	      0.00000000	      0.00000000	     37.58934871	     -5.04248650	      0.71852855	     79.12253312	      1.38094872	     25.73951891	      0.00000000	      0.00000000	    -27.70295450	      2.48553287	      6.84276533	     89.89723778	     -1.02273504	     19.40634011	     36.69601253	     84.90161421	      0.00000000	      0.00000000	     89.94902487	     -3.81912086	     29.88115908	     42.25048791	     85.51229074	      0.00000000	      0.00000000
      2.60000000	      6.30865728	     -7.25896442	      0.83398384	     -0.36103125	      0.86923334	     -1.05050230	     38.20031582	      3.97829859	     -2.75584032	      1.35535566	      0.02365542	     -7.11957481	      0.00000000	      0.00000000	     37.82537955	     -5.02386237	      0.74250312	     79.39941542	      1.38578122	     25.86704506	      0.00000000	      0.00000000	    -27.71777186	      2.45225971	      6.89834190	     89.89929216	     -1.05452929	     19.24681049	     36.88842372	     85.01949023	      0.00000000	      0.00000000	     89.94957529	     -3.76075101	     29.64595480	     42.31099911	     85.41229862	      0.00000000	      0.00000000
